<svg width="40" height="39" viewBox="0 0 40 39" fill="none" xmlns="http://www.w3.org/2000/svg">
<path d="M13.3065 31.0158C13.3065 30.8567 13.1452 30.6977 12.9032 30.6977C12.6613 30.6977 12.5 30.8567 12.5 31.0158C12.5 31.1749 12.6613 31.3339 12.9032 31.2544C13.1452 31.2544 13.3065 31.1749 13.3065 31.0158ZM10.8065 30.6181C10.8065 30.7772 10.9677 31.0158 11.2096 31.0158C11.3709 31.0953 11.6129 31.0158 11.6935 30.8567C11.6935 30.6977 11.6129 30.5386 11.3709 30.4591C11.129 30.3796 10.8871 30.4591 10.8065 30.6181ZM14.4355 30.5386C14.1935 30.5386 14.0322 30.6977 14.0322 30.9363C14.0322 31.0953 14.2742 31.1749 14.5161 31.0953C14.7581 31.0158 14.9193 30.9363 14.8387 30.7772C14.8387 30.6181 14.5968 30.4591 14.4355 30.5386ZM19.6774 0C8.54835 0 0 8.42994 0 19.4047C0 28.2323 5.56451 35.7875 13.629 38.4914C14.6774 38.6505 15 38.0142 15 37.5371C15 36.9804 15 34.2764 15 32.6064C15 32.6064 9.35486 33.7993 8.14518 30.2206C8.14518 30.2206 7.25806 27.9143 5.96774 27.3575C5.96774 27.3575 4.1129 26.0851 6.04838 26.0851C6.04838 26.0851 8.06453 26.2442 9.19355 28.1528C10.9677 31.2544 13.8709 30.3796 15.0806 29.8229C15.2419 28.5505 15.7258 27.6757 16.3709 27.1189C11.8549 26.6418 7.25806 26.0056 7.25806 18.3709C7.25806 16.1441 7.90323 15.1103 9.19355 13.6788C8.9516 13.1221 8.30648 11.0544 9.43551 8.27088C11.0483 7.79372 15 10.4181 15 10.4181C16.6129 9.94099 18.3065 9.78192 20 9.78192C21.7742 9.78192 23.4678 9.94099 25.0806 10.4181C25.0806 10.4181 28.9516 7.71419 30.6451 8.27088C31.7742 11.0544 31.0484 13.1221 30.8871 13.6788C32.1774 15.1103 32.9838 16.1441 32.9838 18.3709C32.9838 26.0056 28.2258 26.6418 23.7097 27.1189C24.4355 27.7552 25.0806 28.9481 25.0806 30.8567C25.0806 33.4812 25 36.8213 25 37.4576C25 38.0142 25.4032 38.6505 26.4516 38.4119C34.5161 35.7875 40 28.2323 40 19.4047C40 8.42994 30.8871 0 19.6774 0ZM7.82258 27.4371C7.66129 27.5166 7.74193 27.7552 7.82258 27.9143C7.98388 27.9937 8.14518 28.0733 8.30648 27.9937C8.38713 27.9143 8.38713 27.6757 8.22583 27.5166C8.06453 27.4371 7.90323 27.3575 7.82258 27.4371ZM6.93548 26.8008C6.85483 26.9599 6.93548 27.0394 7.09677 27.1189C7.25806 27.1985 7.41935 27.1985 7.5 27.0394C7.5 26.9599 7.41935 26.8803 7.25806 26.8008C7.09677 26.7213 7.01613 26.7213 6.93548 26.8008ZM9.51616 29.6638C9.43551 29.7434 9.43551 29.982 9.67746 30.141C9.83867 30.3001 10.0806 30.3796 10.1613 30.2206C10.2419 30.141 10.2419 29.9024 10.0806 29.7434C9.91932 29.5843 9.67746 29.5048 9.51616 29.6638ZM8.629 28.4709C8.4677 28.5505 8.4677 28.7891 8.629 28.9481C8.7903 29.1072 8.9516 29.1866 9.1129 29.1072C9.19355 29.0277 9.19355 28.7891 9.1129 28.63C8.9516 28.4709 8.7903 28.3914 8.629 28.4709Z" fill="white"/>
</svg>
