<svg width="40" height="33" viewBox="0 0 40 33" fill="none" xmlns="http://www.w3.org/2000/svg">
<path d="M35.9295 8.08926C37.4951 6.91669 38.9041 5.5096 40 3.868C38.591 4.49338 36.9471 4.9624 35.3033 5.11875C37.0254 4.10252 38.2779 2.53908 38.9041 0.584798C37.3385 1.52286 35.5381 2.2264 33.7378 2.61726C32.1722 0.975655 30.0587 0.0375977 27.7104 0.0375977C23.1702 0.0375977 19.4912 3.71166 19.4912 8.24557C19.4912 8.87098 19.5694 9.49631 19.726 10.1217C12.9159 9.73084 6.81017 6.44766 2.73973 1.52286C2.03522 2.69543 1.64384 4.10252 1.64384 5.66594C1.64384 8.4801 3.05283 10.9816 5.3229 12.4669C3.99217 12.3887 2.66144 12.076 1.56556 11.4506V11.5288C1.56556 15.5156 4.38356 18.7988 8.14094 19.5804C7.51467 19.7368 6.7319 19.8932 6.02739 19.8932C5.47945 19.8932 5.00978 19.815 4.46184 19.7368C5.47945 23.0201 8.53227 25.3652 12.133 25.4434C9.3151 27.6322 5.79256 28.9611 1.95695 28.9611C1.25245 28.9611 0.626225 28.8829 0 28.8047C3.60078 31.1499 7.90609 32.4788 12.6027 32.4788C27.7104 32.4788 35.9295 20.0495 35.9295 9.18369C35.9295 8.79281 35.9295 8.4801 35.9295 8.08926Z" fill="white"/>
</svg>
