<svg width="1555" height="1555" viewBox="0 0 1555 1555" fill="none" xmlns="http://www.w3.org/2000/svg">
<g opacity="0.5" filter="url(#filter0_d_104:742)">
<circle cx="778" cy="778" r="749" fill="url(#paint0_linear_104:742)"/>
</g>
<g opacity="0.7" filter="url(#filter1_d_104:742)">
<circle cx="778" cy="778" r="694" fill="url(#paint1_linear_104:742)"/>
</g>
<path d="M386.781 825.315C377.395 748.62 390.668 674.389 421.479 609.354C428.21 595.133 435.794 581.292 444.137 568.019C428.21 547.257 415.316 523.746 406.405 498.339C390.194 519.859 375.878 542.707 363.649 566.787C322.978 646.422 304.871 738.665 316.626 834.037C331.89 958.23 394.839 1064.98 484.997 1137.98C487.557 1111.05 494.288 1085.27 504.811 1061.19C441.672 1000.61 398.252 918.886 386.781 825.315Z" fill="url(#paint2_radial_104:742)"/>
<path d="M523.583 717.729C533.632 693.934 548.611 672.603 567.382 655.064C518.369 639.232 475.328 608.706 444.138 568.035C435.795 581.307 428.211 595.149 421.48 609.369C390.669 674.404 377.396 748.635 386.782 825.331C398.253 918.902 441.673 1000.62 504.717 1061.2C525.1 1014.27 559.513 974.172 603.218 946.964C610.328 942.508 617.628 938.431 625.212 934.734C605.777 855.194 570.7 781.721 523.583 717.729Z" fill="url(#paint3_linear_104:742)"/>
<path d="M1238.21 720.857C1228.06 638.473 1196.97 563.863 1150.99 501.672C1085.67 413.315 990.203 349.986 881.843 324.958C888.764 343.445 893.693 362.974 896.158 383.452C896.917 389.899 897.485 396.345 897.77 402.697C970.863 426.208 1035.33 470.671 1083.39 529.828C1128.33 585.193 1158.76 653.452 1168.05 729.484C1187.39 886.668 1111.17 1033.61 984.894 1112.02C986.126 1118.27 987.169 1124.62 987.928 1131.07C990.393 1151.55 990.393 1171.65 988.117 1191.27C1157.15 1105.09 1262.67 919.944 1238.21 720.857Z" fill="url(#paint4_radial_104:742)"/>
<path d="M1168.05 729.487C1158.76 653.454 1128.33 585.196 1083.39 529.831C1035.33 470.579 970.861 426.116 897.767 402.605C902.128 496.176 854.442 581.878 778.6 629.09C813.866 648.619 842.307 679.525 858.329 717.636C816.047 774.992 783.529 840.027 763.147 910.182C780.78 911.983 797.939 915.68 814.435 920.989C899.474 948.482 966.405 1020.06 984.797 1111.92C1111.07 1033.52 1187.3 886.67 1168.05 729.487Z" fill="url(#paint5_linear_104:742)"/>
<path d="M1397.11 701.326C1386.68 616.762 1359.85 538.17 1320.13 468.489C1199.25 256.225 959.021 126.06 701.345 157.724C690.727 159.051 680.204 160.568 669.776 162.37C595.64 175.263 526.623 200.954 464.622 236.885C358.726 298.223 273.498 389.423 219.176 497.594C165.802 603.963 142.101 726.544 157.743 853.485C187.701 1097.7 354.934 1291.57 572.508 1367.32C574.119 1364.29 575.731 1361.16 577.248 1358.12C599.621 1313.94 616.781 1266.64 627.968 1217.06C633.182 1193.92 637.069 1170.22 639.628 1146.14C641.809 1124.91 643.041 1103.39 643.041 1081.49C643.041 1039.68 638.87 998.819 630.906 959.286C621.331 955.968 612.135 951.796 603.414 946.961C559.52 974.17 525.201 1014.18 504.723 1061.2C494.295 1085.28 487.469 1111.07 484.909 1137.99C394.846 1064.9 331.802 958.243 316.539 834.051C304.783 738.679 322.985 646.435 363.561 566.8C375.791 542.72 390.201 519.873 406.318 498.352C415.229 523.854 428.122 547.271 444.049 568.033C475.24 608.703 518.28 639.23 567.293 655.062C594.312 629.939 629.2 612.78 668.733 607.945C708.171 603.11 746.187 611.263 778.515 629.181C854.358 581.969 902.044 496.267 897.683 402.696C897.398 396.344 896.83 389.897 896.071 383.451C893.606 362.973 888.677 343.444 881.756 324.957C990.116 349.985 1085.58 413.314 1150.9 501.67C1196.98 563.956 1228.07 638.566 1238.12 720.856C1262.58 920.037 1157.06 1105.19 988.03 1191.27C990.306 1171.65 990.306 1151.55 987.841 1131.07C987.082 1124.62 986.04 1118.27 984.807 1112.01C966.415 1020.15 899.389 948.573 814.446 921.08C796.433 937.765 775.007 950.943 751.022 959.381C743.059 998.914 738.887 1039.77 738.887 1081.58C738.887 1111.54 741.068 1141.02 745.144 1169.75C748.652 1194.11 753.582 1218.1 759.839 1241.42C774.913 1297.26 797.571 1349.97 826.77 1398.32C827.054 1398.79 827.339 1399.27 827.623 1399.74C836.156 1399.08 844.783 1398.13 853.41 1397.09C1195.74 1355.09 1439.1 1043.57 1397.11 701.326Z" fill="url(#paint6_linear_104:742)"/>
<path d="M759.927 1241.43C753.67 1218.01 748.741 1194.12 745.233 1169.75C741.062 1140.93 738.976 1111.54 738.976 1081.59C738.976 1039.78 743.147 998.919 751.111 959.386C754.429 942.795 758.505 926.394 763.151 910.278C783.533 840.123 816.051 775.088 858.333 717.732C842.311 679.621 813.871 648.621 778.604 629.186C746.276 611.363 708.26 603.115 668.821 607.95C629.383 612.785 594.496 629.944 567.382 655.067C548.516 672.606 533.537 693.937 523.583 717.732C570.7 781.724 605.777 855.197 625.307 934.737C627.298 942.89 629.099 951.043 630.805 959.291C638.769 998.824 642.94 1039.68 642.94 1081.49C642.94 1103.3 641.803 1124.91 639.527 1146.15C636.968 1170.23 633.081 1193.93 627.867 1217.06C616.68 1266.64 599.52 1313.95 577.147 1358.13C575.63 1361.16 574.018 1364.29 572.407 1367.32C583.025 1371.02 593.737 1374.43 604.545 1377.56C673.372 1397.38 746.56 1405.62 821.644 1400.22C823.635 1400.03 825.626 1399.94 827.617 1399.75C827.333 1399.27 827.048 1398.8 826.764 1398.32C797.659 1349.98 775.001 1297.26 759.927 1241.43Z" fill="url(#paint7_radial_104:742)"/>
<path fill-rule="evenodd" clip-rule="evenodd" d="M814.528 921C796.515 937.78 775.09 950.958 751.105 959.301C754.423 942.71 758.499 926.309 763.239 910.193C780.873 911.994 798.032 915.691 814.528 921ZM630.803 959.297C621.322 955.979 612.126 951.808 603.31 946.973C610.42 942.517 617.72 938.44 625.304 934.743C627.295 942.801 629.096 951.049 630.803 959.297Z" fill="url(#paint8_radial_104:742)"/>
<defs>
<filter id="filter0_d_104:742" x="25" y="29" width="1506" height="1506" filterUnits="userSpaceOnUse" color-interpolation-filters="sRGB">
<feFlood flood-opacity="0" result="BackgroundImageFix"/>
<feColorMatrix in="SourceAlpha" type="matrix" values="0 0 0 0 0 0 0 0 0 0 0 0 0 0 0 0 0 0 127 0" result="hardAlpha"/>
<feOffset dy="4"/>
<feGaussianBlur stdDeviation="2"/>
<feComposite in2="hardAlpha" operator="out"/>
<feColorMatrix type="matrix" values="0 0 0 0 0 0 0 0 0 0 0 0 0 0 0 0 0 0 0.25 0"/>
<feBlend mode="normal" in2="BackgroundImageFix" result="effect1_dropShadow_104:742"/>
<feBlend mode="normal" in="SourceGraphic" in2="effect1_dropShadow_104:742" result="shape"/>
</filter>
<filter id="filter1_d_104:742" x="80" y="84" width="1396" height="1396" filterUnits="userSpaceOnUse" color-interpolation-filters="sRGB">
<feFlood flood-opacity="0" result="BackgroundImageFix"/>
<feColorMatrix in="SourceAlpha" type="matrix" values="0 0 0 0 0 0 0 0 0 0 0 0 0 0 0 0 0 0 127 0" result="hardAlpha"/>
<feOffset dy="4"/>
<feGaussianBlur stdDeviation="2"/>
<feComposite in2="hardAlpha" operator="out"/>
<feColorMatrix type="matrix" values="0 0 0 0 0 0 0 0 0 0 0 0 0 0 0 0 0 0 0.25 0"/>
<feBlend mode="normal" in2="BackgroundImageFix" result="effect1_dropShadow_104:742"/>
<feBlend mode="normal" in="SourceGraphic" in2="effect1_dropShadow_104:742" result="shape"/>
</filter>
<linearGradient id="paint0_linear_104:742" x1="-125.752" y1="-103.176" x2="1643.23" y2="34.5877" gradientUnits="userSpaceOnUse">
<stop stop-color="#69156B"/>
<stop offset="0.461458" stop-color="#EF003F"/>
<stop offset="0.9965" stop-color="#FFA252"/>
</linearGradient>
<linearGradient id="paint1_linear_104:742" x1="-59.3884" y1="-38.4706" x2="1579.69" y2="89.1774" gradientUnits="userSpaceOnUse">
<stop stop-color="#69156B"/>
<stop offset="0.461458" stop-color="#EF003F"/>
<stop offset="0.9965" stop-color="#FFA252"/>
</linearGradient>
<radialGradient id="paint2_radial_104:742" cx="0" cy="0" r="1" gradientUnits="userSpaceOnUse" gradientTransform="translate(349.405 801.667) rotate(4.14099) scale(226.185)">
<stop offset="1.29998e-06" stop-color="white"/>
<stop offset="0.3238" stop-color="#EDEDEE"/>
<stop offset="0.9711" stop-color="#BEC0C2"/>
<stop offset="1" stop-color="#BCBEC0"/>
</radialGradient>
<linearGradient id="paint3_linear_104:742" x1="649.991" y1="786.479" x2="335" y2="815" gradientUnits="userSpaceOnUse">
<stop offset="1.29998e-06" stop-color="white"/>
<stop offset="0.3238" stop-color="#EDEDEE"/>
<stop offset="0.9711" stop-color="#BEC0C2"/>
<stop offset="1" stop-color="#BCBEC0"/>
</linearGradient>
<radialGradient id="paint4_radial_104:742" cx="0" cy="0" r="1" gradientUnits="userSpaceOnUse" gradientTransform="translate(1209.17 757.144) rotate(0.116222) scale(421.832)">
<stop offset="1.29998e-06" stop-color="white"/>
<stop offset="0.3238" stop-color="#EDEDEE"/>
<stop offset="0.9711" stop-color="#BEC0C2"/>
<stop offset="1" stop-color="#BCBEC0"/>
</radialGradient>
<linearGradient id="paint5_linear_104:742" x1="820.293" y1="794.807" x2="1231" y2="676" gradientUnits="userSpaceOnUse">
<stop offset="1.29998e-06" stop-color="white"/>
<stop offset="0.3238" stop-color="#EDEDEE"/>
<stop offset="0.9711" stop-color="#BEC0C2"/>
<stop offset="1" stop-color="#BCBEC0"/>
</linearGradient>
<linearGradient id="paint6_linear_104:742" x1="23.9897" y1="42.9934" x2="1498.68" y2="158.031" gradientUnits="userSpaceOnUse">
<stop stop-color="#69156B"/>
<stop offset="0.461458" stop-color="#EF003F"/>
<stop offset="0.9965" stop-color="#FFA252"/>
</linearGradient>
<radialGradient id="paint7_radial_104:742" cx="0" cy="0" r="1" gradientUnits="userSpaceOnUse" gradientTransform="translate(696.023 712.611) rotate(90.4391) scale(655.408)">
<stop offset="1.29998e-06" stop-color="white"/>
<stop offset="0.0896878" stop-color="#EDEDEE"/>
<stop offset="0.9711" stop-color="#BEC0C2"/>
<stop offset="1" stop-color="#BCBEC0"/>
</radialGradient>
<radialGradient id="paint8_radial_104:742" cx="0" cy="0" r="1" gradientUnits="userSpaceOnUse" gradientTransform="translate(695 851) rotate(85.6489) scale(184.532)">
<stop offset="1.29998e-06" stop-color="white"/>
<stop offset="0.482292" stop-color="#EDEDEE"/>
<stop offset="0.633333" stop-color="#A6A6A7"/>
<stop offset="1" stop-color="#3D3D3D"/>
</radialGradient>
</defs>
</svg>
