<svg width="734" height="734" viewBox="0 0 734 734" fill="none"
    xmlns="http://www.w3.org/2000/svg">
    <path d="M137.317 394.896C131.804 349.848 139.6 306.248 157.697 268.049C161.65 259.697 166.105 251.567 171.005 243.771C161.65 231.577 154.077 217.767 148.843 202.844C139.321 215.484 130.913 228.904 123.73 243.048C99.8418 289.821 89.2063 344.001 96.111 400.018C105.076 472.963 142.05 535.663 195.004 578.539C196.508 562.725 200.461 547.579 206.642 533.435C169.557 497.854 144.054 449.855 137.317 394.896Z" fill="url(#paint0_radial_2:12)"/>
    <path d="M217.667 331.695C223.57 317.719 232.368 305.19 243.393 294.889C214.605 285.589 189.325 267.66 171.005 243.771C166.105 251.567 161.65 259.697 157.697 268.049C139.6 306.248 131.804 349.848 137.317 394.896C144.054 449.855 169.557 497.854 206.586 533.435C218.558 505.872 238.771 482.318 264.441 466.337C268.617 463.72 272.905 461.326 277.36 459.154C265.945 412.436 245.342 369.281 217.667 331.695Z" fill="url(#paint1_linear_2:12)"/>
    <path d="M637.407 333.533C631.449 285.144 613.185 241.321 586.178 204.793C547.813 152.897 491.74 115.7 428.094 101C432.159 111.858 435.054 123.329 436.502 135.356C436.948 139.143 437.282 142.929 437.449 146.66C480.38 160.47 518.245 186.585 546.476 221.331C572.87 253.85 590.744 293.942 596.201 338.6C607.561 430.923 562.791 517.231 488.621 563.281C489.345 566.956 489.958 570.687 490.403 574.474C491.851 586.501 491.851 598.306 490.515 609.832C589.798 559.216 651.773 450.467 637.407 333.533Z" fill="url(#paint2_radial_2:12)"/>
    <path d="M596.201 338.6C590.744 293.942 572.87 253.85 546.476 221.331C518.245 186.529 480.38 160.414 437.449 146.604C440.01 201.564 412.001 251.901 367.455 279.631C388.169 291.102 404.874 309.255 414.284 331.639C389.45 365.328 370.35 403.526 358.379 444.732C368.736 445.79 378.814 447.962 388.503 451.08C438.451 467.228 477.763 509.269 488.566 563.226C562.736 517.176 607.505 430.922 596.201 338.6Z" fill="url(#paint3_linear_2:12)"/>
    <path d="M730.732 322.062C724.607 272.393 708.848 226.231 685.517 185.304C614.521 60.6296 473.42 -15.8234 322.073 2.77477C315.837 3.55434 309.656 4.44527 303.531 5.50325C259.986 13.0762 219.449 28.1663 183.032 49.2702C120.834 85.2972 70.7752 138.864 38.8687 202.399C7.51912 264.875 -6.40167 336.874 2.78605 411.433C20.3819 554.873 118.607 668.745 246.4 713.236C247.346 711.454 248.293 709.617 249.184 707.835C262.325 681.886 272.404 654.101 278.974 624.978C282.037 611.392 284.32 597.471 285.823 583.327C287.104 570.854 287.828 558.214 287.828 545.351C287.828 520.795 285.378 496.796 280.701 473.576C275.077 471.627 269.675 469.177 264.553 466.337C238.771 482.318 218.614 505.816 206.586 533.435C200.461 547.579 196.452 562.724 194.949 578.538C142.05 535.607 105.02 472.963 96.0553 400.018C89.1506 344.001 99.8418 289.821 123.674 243.048C130.857 228.904 139.321 215.484 148.787 202.844C154.021 217.823 161.594 231.577 170.949 243.771C189.269 267.659 214.549 285.589 243.337 294.889C259.207 280.133 279.698 270.054 302.918 267.214C326.082 264.374 348.411 269.163 367.399 279.687C411.946 251.957 439.954 201.619 437.393 146.66C437.226 142.929 436.892 139.143 436.446 135.356C434.999 123.329 432.103 111.858 428.038 101C491.684 115.7 547.757 152.897 586.123 204.793C613.185 241.377 631.449 285.2 637.351 333.533C651.717 450.523 589.742 559.272 490.459 609.832C491.795 598.306 491.795 586.501 490.348 574.474C489.902 570.687 489.29 566.956 488.566 563.281C477.763 509.324 438.395 467.284 388.503 451.135C377.923 460.936 365.339 468.676 351.251 473.631C346.574 496.851 344.124 520.851 344.124 545.407C344.124 563.003 345.404 580.32 347.799 597.192C349.859 611.503 352.755 625.591 356.43 639.289C365.283 672.086 378.592 703.046 395.742 731.444C395.909 731.723 396.076 732.001 396.243 732.28C401.255 731.89 406.322 731.333 411.389 730.721C612.461 706.053 755.399 523.078 730.732 322.062Z" fill="url(#paint4_linear_2:12)"/>
    <path d="M356.485 639.289C352.81 625.535 349.915 611.503 347.855 597.192C345.404 580.265 344.179 563.003 344.179 545.407C344.179 520.851 346.63 496.851 351.307 473.631C353.256 463.887 355.65 454.254 358.379 444.788C370.35 403.582 389.45 365.383 414.285 331.695C404.874 309.31 388.169 291.102 367.455 279.687C348.467 269.219 326.138 264.374 302.974 267.214C279.81 270.054 259.318 280.133 243.393 294.889C232.312 305.19 223.514 317.719 217.667 331.695C245.342 369.281 265.945 412.436 277.415 459.154C278.585 463.943 279.643 468.731 280.645 473.576C285.322 496.796 287.772 520.795 287.772 545.351C287.772 558.158 287.104 570.854 285.768 583.327C284.264 597.471 281.981 611.392 278.919 624.978C272.348 654.101 262.27 681.886 249.128 707.835C248.237 709.617 247.291 711.454 246.344 713.236C252.581 715.408 258.873 717.412 265.221 719.25C305.647 730.888 348.634 735.732 392.735 732.558C393.904 732.447 395.074 732.391 396.243 732.28C396.076 732.001 395.909 731.723 395.742 731.444C378.647 703.046 365.339 672.086 356.485 639.289Z" fill="url(#paint5_radial_2:12)"/>
    <path d="M264.497 466.337C269.675 469.177 275.077 471.627 280.645 473.576C279.643 468.731 278.585 463.887 277.415 459.154C272.961 461.325 268.673 463.72 264.497 466.337Z" fill="url(#paint6_radial_2:12)"/>
    <path d="M351.307 473.576C365.395 468.676 377.979 460.936 388.559 451.08C378.87 447.961 368.791 445.79 358.434 444.732C355.65 454.198 353.256 463.831 351.307 473.576Z" fill="url(#paint7_radial_2:12)"/>
    <defs>
        <radialGradient id="paint0_radial_2:12" cx="0" cy="0" r="1" gradientUnits="userSpaceOnUse" gradientTransform="translate(115.364 381.006) scale(271.705)">
            <stop offset="1.29998e-06" stop-color="white"/>
            <stop offset="0.3238" stop-color="#EDEDEE"/>
            <stop offset="0.9711" stop-color="#BEC0C2"/>
            <stop offset="1" stop-color="#BCBEC0"/>
        </radialGradient>
        <linearGradient id="paint1_linear_2:12" x1="291.914" y1="372.075" x2="-119.81" y2="438.042" gradientUnits="userSpaceOnUse">
            <stop offset="1.29998e-06" stop-color="white"/>
            <stop offset="0.3238" stop-color="#EDEDEE"/>
            <stop offset="0.9711" stop-color="#BEC0C2"/>
            <stop offset="1" stop-color="#BCBEC0"/>
        </linearGradient>
        <radialGradient id="paint2_radial_2:12" cx="0" cy="0" r="1" gradientUnits="userSpaceOnUse" gradientTransform="translate(620.351 354.846) scale(415.154)">
            <stop offset="1.29998e-06" stop-color="white"/>
            <stop offset="0.3238" stop-color="#EDEDEE"/>
            <stop offset="0.9711" stop-color="#BEC0C2"/>
            <stop offset="1" stop-color="#BCBEC0"/>
        </radialGradient>
        <linearGradient id="paint3_linear_2:12" x1="391.944" y1="376.966" x2="832.101" y2="240.483" gradientUnits="userSpaceOnUse">
            <stop offset="1.29998e-06" stop-color="white"/>
            <stop offset="0.3238" stop-color="#EDEDEE"/>
            <stop offset="0.9711" stop-color="#BEC0C2"/>
            <stop offset="1" stop-color="#BCBEC0"/>
        </linearGradient>
        <linearGradient id="paint4_linear_2:12" x1="202.822" y1="-0.594626" x2="542.891" y2="761.435" gradientUnits="userSpaceOnUse">
            <stop offset="1.09753e-06" stop-color="#009E52"/>
            <stop offset="0.1552" stop-color="#018C55"/>
            <stop offset="0.4668" stop-color="#045D5D"/>
            <stop offset="0.9026" stop-color="#081269"/>
            <stop offset="1" stop-color="#09006C"/>
        </linearGradient>
        <radialGradient id="paint5_radial_2:12" cx="0" cy="0" r="1" gradientUnits="userSpaceOnUse" gradientTransform="translate(318.951 328.687) scale(450.717)">
            <stop offset="1.29998e-06" stop-color="white"/>
            <stop offset="0.3238" stop-color="#EDEDEE"/>
            <stop offset="0.9711" stop-color="#BEC0C2"/>
            <stop offset="1" stop-color="#BCBEC0"/>
        </radialGradient>
        <radialGradient id="paint6_radial_2:12" cx="0" cy="0" r="1" gradientUnits="userSpaceOnUse" gradientTransform="translate(321.226 432.186) scale(93.8785)">
            <stop offset="1.29998e-06" stop-color="white"/>
            <stop offset="0.3238" stop-color="#EDEDEE"/>
            <stop offset="0.9711" stop-color="#BEC0C2"/>
            <stop offset="1" stop-color="#BCBEC0"/>
        </radialGradient>
        <radialGradient id="paint7_radial_2:12" cx="0" cy="0" r="1" gradientUnits="userSpaceOnUse" gradientTransform="translate(321.226 432.187) scale(93.8785)">
            <stop offset="1.29998e-06" stop-color="white"/>
            <stop offset="0.3238" stop-color="#EDEDEE"/>
            <stop offset="0.9711" stop-color="#BEC0C2"/>
            <stop offset="1" stop-color="#BCBEC0"/>
        </radialGradient>
    </defs>
</svg>
